<svg xmlns="http://www.w3.org/2000/svg" viewBox="0 0 344.72 349.33"><title>Recurso 1</title><path d="M173.24,58.46c67.21.88,115.65,55.13,115,116.15-.69,64.8-52.21,115.23-118.11,114.28C108.07,288,56,236.34,57.88,170.26,59.56,110.13,108,59.12,173.24,58.46ZM175.3,66C97.44,66,65.77,128.83,65.7,176.73,65.63,235.47,113,282,172.48,282.48c51.23.41,107.89-42.81,108.14-107.83C280.81,126.59,243.94,65.55,175.3,66Z" fill="#fff"/><path d="M297.35,137.49l19.23-7.18c-.73-2-1.33-3.61-2.07-5.62l-19.35,6.91c-1.14-3-2.15-5.79-3.34-9l43.94-16.15,3.45,9-17.59,6.66,1.75,5.65,18-6.31,3.35,9-44.17,16.19C299.42,143.38,298.46,140.64,297.35,137.49Z" fill="#fff"/><path d="M95.54,38.81l5.39-2.63C98,30.62,95.2,25.26,92.18,19.53l8.42-4.75,22,41.31-8.45,4.61-9.83-18-5.29,2.78,9.55,18.14-8.47,4.56-22-41.23,8.34-4.65Z" fill="#fff"/><path d="M275.54,279l-6.4,5.13c-1.82-1.79-3.13-3.67-4.93-4.65-1.49-.81-3.55-.57-5.37-.79-.18,1.7-1.17,4-.42,5,5.24,6.85,10.76,13.5,16.44,20,.75.86,3.64,1.17,4.28.51a5.59,5.59,0,0,0,1.18-4.7c-.6-1.94-2.3-3.54-3.64-5.45l-4.48,2.69-4.44-5.28L279.31,282l15.54,19-7.92,4.64c-3.52,10.86-13.91,10.56-21.16,2.71a172.47,172.47,0,0,1-14.37-17.86c-4.48-6.37-3.72-12.26,1.3-17.11C260.28,266.1,269.74,268.3,275.54,279Z" fill="#fff"/><path d="M0,133.82c.15-5.55,2.57-7.26,7.3-7.21a69.41,69.41,0,0,0,16.73-2L5,117.84l2.56-7.58,43.79,15.06c.08,4.83-1.73,7.18-6.71,7-5.93-.23-11.88-.05-17.82-.05l-.29,1.69,20,7.09-2.64,7.86Z" fill="#fff"/><path d="M261,77.57c-10.51.12-18.25-10.1-13.73-17.88,5.09-8.78,11.74-16.83,18.64-24.34,4.19-4.55,10-3.64,15.42.38,5,3.73,7.56,9.35,4.38,14.31-5.68,8.85-12.51,17-19.23,25.12C265.09,76.82,262.07,77.12,261,77.57Zm-2.37-8.45c.53-.22,1.34-.31,1.69-.76C266.1,61,271.91,53.55,277.46,46c.54-.73-.15-3.37-1-3.82-1.13-.62-3.7-.61-4.36.19-5.76,7-11.46,14.12-16.68,21.54C253.8,66.21,255.13,68.69,258.62,69.12Z" fill="#fff"/><path d="M310.38,65.56l6.49,7.54c-9.89,8.12-19.23,16.36-29.2,23.76-5.78,4.29-11.46,2.74-16.33-2.8s-5.46-11.43-.36-16.55c8.74-8.79,18.27-16.79,27.83-25.46l6.51,7.62c-8.31,7.14-16.45,14-24.37,21-2.23,2-6.76,4-3.82,7.81,3.31,4.26,6.27-.06,8.68-2C294,79.76,302,72.74,310.38,65.56Z" fill="#fff"/><path d="M15.49,97.29c-.16-12.19,9-19.17,17.92-15.14a138.31,138.31,0,0,1,22.78,13.2c6.64,4.7,7.24,10.87,3.15,17.5-3.81,6.19-9.74,8.26-16.78,4.75a164.87,164.87,0,0,1-21.39-12.68C18.22,102.85,16.62,98.87,15.49,97.29ZM26.62,89.9c-.66.56-2.46,1.46-2.37,2.11.23,1.76.78,4.18,2.06,5,6.84,4.37,13.86,8.51,21.05,12.29,1.31.69,3.67-.63,5.54-1-.58-1.73-.63-4.27-1.82-5-7-4.47-14.22-8.54-21.41-12.69A12.59,12.59,0,0,0,26.62,89.9Z" fill="#fff"/><path d="M31.51,68.2c3.71-3.93,6.72-7.48,10.13-10.6S49.13,53,53.57,55.25c4.7,2.43,9,5.8,9.15,11.53.11,3.4,1.51,4.57,4.18,5.69,5.46,2.3,10.82,4.86,16.62,7.48-.81,1.21-1.38,2-1.85,2.76-2.65,4.5-5.75,4.82-10.09,1.89a46.82,46.82,0,0,0-13.73-6.09L73,92.25l-6.35,7.2ZM43.6,66l8.71,7.62c3.59-3.74,1.39-6.14-1-8.24S46.43,61.71,43.6,66Z" fill="#fff"/><path d="M75.18,259.34c-1.66,2.94-2.7,6.62-5.11,8.67a184.63,184.63,0,0,1-21,15.83c-6.29,4-12.89,1.94-17.08-3.94s-4-12,1.72-17a148.23,148.23,0,0,1,20.7-15.49C63.4,242,74.12,248.5,75.18,259.34ZM40.73,277.16a7.42,7.42,0,0,0,2.08-.51c7.3-5.43,14.64-10.81,21.76-16.47.85-.68,1.13-3.69.47-4.28-1.06-1-3.71-1.64-4.66-1C53.07,260.07,46,265.49,39,271.05c-.83.66-1,2.8-.69,4C38.53,276,40.07,276.64,40.73,277.16Z" fill="#fff"/><path d="M145.57,299.19c2.66.62,5.31,1.41,8,1.83,5.86.89,12.27,1.52,14.09,8.28,1.69,6.32,1,12.61-5.41,16.81-.79.52-1,2.6-.79,3.84,1,6.34,2.26,12.65,3.42,19-8.89,1-9.34.67-10.44-7-.69-4.77-1.32-9.55-2-14.32,0-.07-.22-.11-.9-.41-.91,6.78-1.79,13.4-2.73,20.41l-9.4-.85c.79-6.94,1.45-13.48,2.31-20,1.2-9.22,2.55-18.43,3.84-27.64Zm8.14,9.32-1.27,11.43c4.89,1.12,5.68-2,6.12-5S159.12,308.73,153.71,308.51Z" fill="#fff"/><path d="M266,263.11l6-7.84,22.39,17c2,1.51,3.83,3.42,6.06,4.35,1.63.69,3.8.08,5.72,0-.38-1.89-.2-4.24-1.27-5.57-1.73-2.16-4.26-3.68-6.5-5.41-7.1-5.48-14.21-10.93-21.64-16.63l6-7.8c9.81,7.8,19.6,15,28.66,23,5.86,5.19,5.58,11.34.74,17.37-4.63,5.77-10.3,7.26-16.74,3C285.48,278,276.08,270.56,266,263.11Z" fill="#fff"/><path d="M160.81,47.1V0c6.16.57,11.93.73,17.55,1.75A7.93,7.93,0,0,1,185,9.55c.22,9.79.29,19.61-.25,29.39-.27,4.93-4.29,7.57-8.92,8.05C171,47.49,166,47.1,160.81,47.1Zm9.67-39.32V39.93c3.72,1,5.37-.25,5.36-4.09,0-7.63.07-15.26.23-22.89C176.14,9.31,174.88,7.26,170.48,7.78Z" fill="#fff"/><path d="M102.93,313l8.35,4.52c-2.06,3.13-3.61,6.09-5.72,8.58-4.68,5.55-10,6.43-16,3.06S81,320.42,83.75,314a165.94,165.94,0,0,1,12.7-24.2c4-6.21,10.41-7,16.68-3.44,6,3.41,8.1,8.91,5.65,15.74a86.41,86.41,0,0,1-3.81,8l-8.07-4.37c1.19-2.8,2.56-5.28,3.26-7.94.34-1.29-.57-2.92-.92-4.39-1.6.43-4.09.36-4.68,1.39q-6.48,11.2-12.19,22.85c-.53,1.08.84,3.1,1.34,4.68,1.54-.6,3.55-.79,4.52-1.9C100.05,318.3,101.26,315.7,102.93,313Z" fill="#fff"/><path d="M75.43,296.4l7.06,5.91c-3.86,3.18-7.1,6.49-10.93,8.84-4.33,2.65-8.69,1.24-12.44-1.91s-6.21-7-4.9-12.21a14.61,14.61,0,0,1,2.33-5.45c5.07-6.36,10.07-12.84,15.69-18.71,5.18-5.41,10.51-6,15.77-2.92,7.66,4.49,9.42,11.6,4.56,19.06-1.42,2.18-3.22,4.12-5,6.35l-7-6c1.79-2.44,3.7-4.54,5-7,.63-1.22.08-3.06.07-4.62-1.67.12-4.08-.43-4.9.46q-8.88,9.76-17.1,20.13c-.72.91.3,3.2.52,4.85,1.49-.22,3.29,0,4.42-.75C70.81,300.89,72.76,298.79,75.43,296.4Z" fill="#fff"/><path d="M136.81,16.05,128.6,20a9.65,9.65,0,0,0-1.54-2.59,45.63,45.63,0,0,0-4.25-2.85c-.11,1.85-.93,4.13-.14,5.44,1.11,1.82,3.32,3.07,5.23,4.29,3.9,2.5,8.34,4.32,11.79,7.3C144.84,36,145.9,43,143.08,47.83a12.77,12.77,0,0,1-14.27,5.57c-4.7-1.42-8.26-4.73-8.65-9.27-.15-1.79,4.34-4,7.13-6.34,1.12,2.32,1.56,4,2.6,5.16s2.69,1.83,4.07,2.72c.18-1.78,1.16-4.2.37-5.22a28.68,28.68,0,0,0-7.06-6c-2.63-1.7-5.77-2.6-8.43-4.27C113.49,26.81,111,19.54,113,14,114.83,9,120.5,5.62,126.23,6,131.47,6.42,135.17,9.82,136.81,16.05Z" fill="#fff"/><path d="M21.82,231.92l5.38,7.73c-1.78,1.16-3.61,1.89-4.71,3.22-.87,1-.83,2.83-1.19,4.28,1.35,0,3.33.59,3.95-.08A36.33,36.33,0,0,0,31,239.22c1.41-2.77,1.78-6.07,3-8.94,2.74-6.25,9.93-9.76,16-8.12,5.52,1.48,9.63,7.82,9,14-.53,4.75-3.19,7.88-8.08,9.86l-5.3-8c1.06-.67,2.07-1,2.57-1.7A36.49,36.49,0,0,0,50.62,232c-1.8,0-4.19-.81-5.26.05-1.8,1.46-3,3.84-4,6-1.58,3.46-2.44,7.28-4.25,10.6-3.27,6-9.42,9.14-14.78,8.06a12.44,12.44,0,0,1-9.57-10.32C11.85,240.32,14.52,235.87,21.82,231.92Z" fill="#fff"/><path d="M248.56,332l-8.44,4.2c-4.1-15.06-8.28-29.58-11.69-44.28-.36-1.57,3.77-4.18,6.14-6.65l30.3,37.38c-5.82,5.57-7.33,5.69-11.92-.15-2.52-3.19-4.36-1.78-6.84.1.36,1.49.72,3.07,1.13,4.64S248,330.08,248.56,332Zm-8.74-26.28L243.56,316l3.21-1.14C245.8,311.25,242.85,308.34,239.82,305.71Z" fill="#fff"/><path d="M313.23,198.74c.47-5.22,2.11-9.88.88-13.61-1.15-3.49-5.33-6-8.61-9.35,4.95-1,9.93-.7,13-3s4.35-7.16,7.1-12.15c2.7,10.3,8.21,15.9,19,14.24l-.13,1.28c-2.91,3.05-7.15,5.66-8.34,9.28s.59,8.35,1.15,13.29c-4.43-2-8.28-5.18-12.11-5.16S317.46,196.77,313.23,198.74Z" fill="#fff"/><path d="M32.21,198.77c-8.43-6.78-16.09-6.23-24.3.29,4.1-10.2,1-17.4-7.39-23.44,10.66.52,17-3.94,19.44-14.52,3.35,9.8,8.83,15.45,20,14.41C31.46,181.51,28.49,188.76,32.21,198.77Z" fill="#fff"/><path d="M145.57,299.17l-3.46,6.11-8.84-2.21c-1.17,3.69-2.26,7.11-3.45,10.85l6.35,2.74-1.91,6.15-6.65-1.54c-1.28,4.07-2.59,8.21-4,12.77l9,3.37-1.82,6.38-18.59-5.62c4.65-15.05,9.17-29.7,13.87-44.9l19.52,5.92Z" fill="#fff"/><path d="M220.54,294.21l1.84,6.53-9,3.08c1,3.59,2,7.16,3.14,11.06l6.78-1.29,1.89,6-6.36,2.7,3.75,12.81,9.26-2.45c.68,2,1.34,3.94,2.2,6.44l-18.71,5.62-13.41-44.88Z" fill="#fff"/><path d="M204.24,10.64,202,21.81l6.53,2-1.06,6.36-6.81-.78c-.81,4.29-1.6,8.45-2.47,13l9.36,2.35c-.35,2.18-.66,4.07-1.08,6.61l-19.16-3.46c2.85-15.32,5.65-30.38,8.57-46.15l19.16,3.48c-.5,2.44-.9,4.45-1.38,6.76Z" fill="#fff"/><path d="M283.27,239.67l8.35-17.36,6.12,2.63-4,8.8,10.73,5.4,3.25-5.93,6.09,2.66-2.4,6.51,12,5.87,4.73-8.57L334,242.6c-2.82,5.85-5.52,11.46-8.4,17.42Z" fill="#fff"/><path d="M235.17,63.6l-9-4.54c9.6-13.73,9.44-30,13.58-45,8.4,2.6,8.4,2.61,6.38,10.28a53.13,53.13,0,0,0-2,11c2.35-2.84,4.7-5.67,7-8.52,4.93-6,5.29-6.05,11.85-.94C253.53,38.11,240.08,47.34,235.17,63.6Z" fill="#fff"/><path d="M62.8,47.33,57.31,51c-1.47-1.85-2.79-3.52-4.47-5.62L70.51,31.24l5.1,6-5.48,3.64L94.85,72l-7.47,6Z" fill="#fff"/><path d="M317.7,89.28l-2.92-5.8,6.14-3.74,11.5,19.71-6,3.56-3.9-5.19-33.94,19.72-4.86-8.25Z" fill="#fff"/><path d="M183,302.44l9.55-1.33L198,340.37l8.78-.43,1.22,6.54-18.65,2.57C187.22,333.4,185.13,318.19,183,302.44Z" fill="#fff"/><path d="M158,47.7l-9.6,1.23c-2.29-15.53-4.55-30.81-6.84-46.4L151.09.9C153.39,16.5,155.65,31.81,158,47.7Z" fill="#fff"/><path d="M195.48,240.41c-8.33-3.2-16.82-6-24.8-9.82-2.49-1.2-4.43-5.05-5.18-8.05-2.83-11.26-5.23-22.63-7.36-34-.34-1.81,1-4.65,2.47-6,6.58-5.86,13.48-11.37,20.29-17,3.72-3.06,7.88-3.36,12.18-1.5,8.84,3.84,17.81,7.44,26.34,11.87a16.07,16.07,0,0,1,7.27,8.11A113.4,113.4,0,0,1,232,206.79c.38,3.09-1.5,7.33-3.76,9.7a192.92,192.92,0,0,1-19.92,18.1C205,237.22,200.41,238.26,195.48,240.41Z" fill="#fff"/><path d="M162.14,226.21c-.6.88-1.32,3-2.79,3.93-7.64,4.65-15.29,9.33-23.33,13.19-2.29,1.09-6.4.31-8.8-1.1-9.46-5.57-18.77-11.46-27.71-17.82a16.63,16.63,0,0,1-5.75-8.8c-1.94-7.37-2.82-15-4.27-22.52-.69-3.56.42-6,3.45-8q12.5-8.26,24.78-16.87c3.28-2.29,6.42-2.42,9.71-.32,7.45,4.73,15,9.3,22.22,14.37a12.7,12.7,0,0,1,4.66,6.77c2.81,11.47,5.11,23.06,7.58,34.61C162,224.12,162,224.62,162.14,226.21Z" fill="#fff"/><path d="M245.56,146.46c-.63,1.28-1.26,3.4-2.54,5-4.88,6.11-10,12-15,18.07-2.36,2.88-5,3.49-8.37,2-9.53-4.33-19.18-8.41-28.59-13a11.93,11.93,0,0,1-5.11-5.63c-3.48-7.89-6.28-16.09-9.76-24-2.38-5.39-1.37-10.07,1.85-14.47q6.49-8.83,13.41-17.38c4.06-5,7.64-5.13,13.69-3.17,24.13,7.79,33.17,27.51,39.8,49.29C245.22,143.94,245.27,144.79,245.56,146.46Z" fill="#fff"/><path d="M71.32,158.89c4.47-24.47,11.26-46.6,33.52-60.08,5.43-3.29,7.93-2.76,11.77,2.42,3.57,4.81,7.08,9.67,10.71,14.44a11,11,0,0,1,2.06,10.26c-2.66,10-5,20-7.47,30a16.18,16.18,0,0,1-7.68,10.56c-7.54,4.57-14.93,9.39-22.3,14.22-3.79,2.49-6.76,2.1-9.27-1.79-2.79-4.34-5.91-8.48-8.53-12.91C72.74,163.68,72.08,160.9,71.32,158.89Z" fill="#fff"/><path d="M152.65,118.32c-4.64-.21-10.31-.21-15.91-.86a10.37,10.37,0,0,1-6.2-3.15c-4.31-5-8.22-10.44-12.11-15.84-3.09-4.29-2.56-7.2,1.24-10.93,11.66-11.46,26.48-14.91,41.94-17.62,13.33-2.34,21.5,3.87,28.39,13.83,2.52,3.65,2.56,7.12-.09,10.56-5.29,6.85-10.43,13.82-16.13,20.31-1.71,2-5,3.16-7.67,3.54C162,118.75,157.81,118.32,152.65,118.32Z" fill="#fff"/><path d="M209.58,270.49c-2.68-.49-4.49-.74-6.26-1.16-6.3-1.48-6.42-2.52-5.82-9,1-11,5.61-19.23,14.91-25.44,5.9-3.93,10.9-9.22,16.25-14,4.69-4.16,9.75-6.26,15.94-3.4.73.34,1.64.28,2.4.58,3.29,1.27,8.31,1.74,9.47,4.09,2.38,4.83,2.57,10.81-1,15.68-2.94,4-5.92,8.25-9.79,11.21-8.65,6.62-17.74,12.72-26.94,18.58C215.94,269.45,212.19,269.73,209.58,270.49Z" fill="#fff"/><path d="M276.27,164.78a9.24,9.24,0,0,1-.2,2c-.56,1.79-1.23,3.54-1.85,5.31-1.69-.8-3.74-1.21-5-2.44q-8.16-8.06-15.9-16.55a14,14,0,0,1-3.31-6,117,117,0,0,0-14.89-35.72c-2.83-4.6-2.06-11.27,2.26-14.18,1.3-.88,4.85-.08,6.28,1.18A90.23,90.23,0,0,1,268.58,134c3.76,9.83,6.11,20.2,9.09,30.33Z" fill="#fff"/><path d="M83.73,225.84a9.31,9.31,0,0,1,10.91-.36c11,6.57,22.42,12.48,32.61,20.09,7.72,5.76,13.94,13.61,20.53,20.79,2.57,2.79,1.4,5.59-2.34,6.42a10.4,10.4,0,0,1-4.89-.23c-20.75-6-37.9-17.36-50.93-34.67a51.17,51.17,0,0,1-4.33-7.82A36.62,36.62,0,0,1,83.73,225.84Z" fill="#fff"/><path d="M154.21,275.49c15.59-4.54,30.31-8.11,45.82-3C194.08,279.42,167.75,281.76,154.21,275.49Z" fill="#fff"/><path d="M275.76,176.16c2.51,19.08-4.24,35.75-13.95,51.85-2.54-3.58-2.44-4.44-.45-10,3.36-9.35,6.65-18.72,9.71-28.16.85-2.63.67-5.58,1.16-8.35.36-2,1.06-3.9,1.6-5.85Z" fill="#fff"/></svg>